<svg width="49" height="57" viewBox="0 0 49 57" fill="none" xmlns="http://www.w3.org/2000/svg">
<path d="M8.16675 4.75V22.9792C8.16675 25.8801 9.7625 28.4556 12.1283 29.3729C12.8371 29.6478 13.5608 29.8512 14.2917 29.9833V52.25H18.3751V29.9833C19.106 29.8512 19.8297 29.6478 20.5385 29.3729C22.9043 28.4556 24.5001 25.8801 24.5001 22.9792V4.75H20.4167V22.9792C20.4167 23.8356 19.9457 24.5959 19.2473 24.8667C18.9597 24.9782 18.6686 25.0727 18.3751 25.1503V4.75H14.2917V25.1503C13.9982 25.0727 13.7071 24.9782 13.4196 24.8667C12.7212 24.5959 12.2501 23.8356 12.2501 22.9792V4.75H8.16675Z" fill="#FCF7F4"/>
<path d="M31.8643 7.0747C34.4207 4.10093 38.7917 6.20707 38.7917 10.4126V52.25H34.7084V37.9993C33.7555 37.9965 32.9173 37.9815 32.2058 37.9035C31.2737 37.8014 30.3525 37.5748 29.4922 36.9683C28.6481 36.3733 27.9402 35.5497 27.4286 34.5679C26.9073 33.5671 26.7125 32.4955 26.6247 31.4112C26.5417 30.3866 26.5417 29.1361 26.5417 27.6862L26.5417 22.0224C26.5417 16.4159 28.4563 11.0391 31.8643 7.0747Z" fill="#FCF7F4"/>
</svg>
