<svg width="38" height="38" viewBox="0 0 38 38" fill="none" xmlns="http://www.w3.org/2000/svg">
<path d="M8.77143 17.0481C8.11901 17.483 7.30234 17.5924 6.55847 17.3444C3.52355 16.3328 1.14204 13.9513 0.130404 10.9164C-0.117551 10.1725 -0.00818294 9.35583 0.426759 8.70341L0.673877 8.33274C1.3132 7.37376 2.01055 6.4578 2.76118 5.58961L0.323208 3.15163L3.15164 0.323207L5.58961 2.76118C6.4578 2.01055 7.37376 1.3132 8.33274 0.673877L8.70341 0.426759C9.35583 -0.00818294 10.1725 -0.117551 10.9164 0.130404C13.9513 1.14205 16.3328 3.52355 17.3444 6.55847C17.5924 7.30234 17.483 8.11901 17.0481 8.77143L16.801 9.1421C16.1616 10.1011 15.4643 11.017 14.7137 11.8852L25.6349 22.8064C26.6773 21.8896 27.7818 21.0412 28.942 20.2677L29.1641 20.1196C29.5258 19.8785 29.9787 19.8178 30.3911 19.9553C33.7567 21.0772 36.3977 23.7181 37.5195 27.0837C37.657 27.4962 37.5964 27.949 37.3552 28.3108L37.2071 28.5329C36.4337 29.693 35.5853 30.7976 34.6684 31.84L37.1516 34.3232L34.3232 37.1516L31.84 34.6684C30.7976 35.5853 29.693 36.4337 28.5329 37.2071L28.3108 37.3552C27.949 37.5964 27.4962 37.657 27.0837 37.5195C23.7181 36.3977 21.0772 33.7567 19.9553 30.3911C19.8178 29.9787 19.8785 29.5258 20.1196 29.1641L20.2677 28.942C21.0412 27.7818 21.8896 26.6773 22.8064 25.6349L11.8852 14.7137C11.017 15.4643 10.1011 16.1616 9.14211 16.801L8.77143 17.0481Z" fill="white"/>
</svg>
