<svg width="43" height="43" viewBox="0 0 43 43" fill="none" xmlns="http://www.w3.org/2000/svg">
<path d="M31.0915 19.4637L16.3452 12.0882C15.9283 11.8796 15.465 11.7811 14.9993 11.802C14.5336 11.823 14.081 11.9626 13.6845 12.2078C13.2881 12.4529 12.9609 12.7954 12.734 13.2027C12.5072 13.6099 12.3883 14.0684 12.3887 14.5346V28.4655C12.3883 28.9316 12.5072 29.3901 12.734 29.7974C12.9609 30.2046 13.2881 30.5471 13.6845 30.7923C14.081 31.0374 14.5336 31.1771 14.9993 31.198C15.465 31.2189 15.9283 31.1204 16.3452 30.9118L31.0915 23.5364C31.4693 23.347 31.787 23.0562 32.0091 22.6966C32.2311 22.337 32.3487 21.9227 32.3487 21.5C32.3487 21.0774 32.2311 20.6631 32.0091 20.3034C31.787 19.9438 31.4693 19.6531 31.0915 19.4637Z" stroke="#BC1414" stroke-width="2" stroke-linecap="round" stroke-linejoin="round"/>
<path d="M21.5 42C32.8218 42 42 32.8218 42 21.5C42 10.1782 32.8218 1 21.5 1C10.1782 1 1 10.1782 1 21.5C1 32.8218 10.1782 42 21.5 42Z" stroke="#BC1414" stroke-width="2"/>
</svg>
